<?xml version="1.0" encoding="utf-8"?>
<!-- Generator: Adobe Illustrator 19.2.1, SVG Export Plug-In . SVG Version: 6.00 Build 0)  -->
<!DOCTYPE svg PUBLIC "-//W3C//DTD SVG 1.1//EN" "http://www.w3.org/Graphics/SVG/1.1/DTD/svg11.dtd">
<svg version="1.1" id="Lager_1" xmlns="http://www.w3.org/2000/svg" xmlns:xlink="http://www.w3.org/1999/xlink" x="0px" y="0px"
	 viewBox="0 0 15 14.9" enable-background="new 0 0 15 14.9" xml:space="preserve">
<g>
	<path fill="#333333" d="M4.8,3.4c0-1.4,1.2-2.6,2.6-2.6h0.1c1.4,0,2.6,1.1,2.6,2.6v2.7H4.8L4.8,3.4L4.8,3.4z M14.9,6.2
		c-0.1-0.1-0.2-0.2-0.3-0.2h-3.7V3.4C10.9,1.5,9.4,0,7.5,0H7.5C5.6,0,4,1.5,4,3.4v2.7H0.4c-0.1,0-0.2,0.1-0.3,0.2C0,6.3,0,6.4,0,6.6
		l2,8.1c0,0.2,0.2,0.3,0.4,0.3h10.1c0.2,0,0.3-0.1,0.4-0.3l2-8.1C15,6.4,15,6.3,14.9,6.2z"/>
</g>
<path fill="#333333" d="M4.8,3.4c0-1.4,1.2-2.6,2.6-2.6h0.1c1.4,0,2.6,1.1,2.6,2.6v2.7H4.8L4.8,3.4L4.8,3.4z M14.9,6.2
	c-0.1-0.1-0.2-0.2-0.3-0.2h-3.7V3.4C10.9,1.5,9.4,0,7.5,0H7.5C5.6,0,4,1.5,4,3.4v2.7H0.4c-0.1,0-0.2,0.1-0.3,0.2C0,6.3,0,6.4,0,6.6
	l2,8.1c0,0.2,0.2,0.3,0.4,0.3h10.1c0.2,0,0.3-0.1,0.4-0.3l2-8.1C15,6.4,15,6.3,14.9,6.2z"/>
</svg>
