<?xml version="1.0" encoding="utf-8"?>
<!-- Generator: Adobe Illustrator 19.2.1, SVG Export Plug-In . SVG Version: 6.00 Build 0)  -->
<!DOCTYPE svg PUBLIC "-//W3C//DTD SVG 1.1//EN" "http://www.w3.org/Graphics/SVG/1.1/DTD/svg11.dtd">
<svg version="1.1" id="Lager_1" xmlns="http://www.w3.org/2000/svg" xmlns:xlink="http://www.w3.org/1999/xlink" x="0px" y="0px"
	 viewBox="0 0 15 13.5" enable-background="new 0 0 15 13.5" xml:space="preserve">
<g>
	<defs>
		<path id="SVGID_1_" d="M15,4c-0.2-2.3-1.9-4-4.1-4C9.5,0,8.2,0.7,7.5,1.9C6.7,0.7,5.5,0,4.1,0C1.9,0,0.2,1.7,0,4
			c0,0.1-0.1,0.6,0.1,1.5c0.3,1.3,1,2.4,2.1,3.4l5.2,4.6l5.3-4.6c1-0.9,1.8-2.1,2.1-3.4C15.1,4.7,15,4.1,15,4z"/>
	</defs>
	<clipPath id="SVGID_2_">
		<use xlink:href="#SVGID_1_"  overflow="visible"/>
	</clipPath>
	<rect x="-5" y="-5" clip-path="url(#SVGID_2_)" fill="#333333" width="25" height="23.5"/>
</g>
<g>
	<line fill="#333333" x1="-36.3" y1="17.1" x2="-11.3" y2="17.1"/>
</g>
</svg>
