<svg xmlns="http://www.w3.org/2000/svg" viewBox="0 0 106.3 25.6"><path d="M28.4 7.4c-1.8-2.3-4.5-2.6-5.6-2.6-5.1 0-8.2 4-8.2 7.9 0 4.5 3.6 8 8.2 8 1.1 0 3.8-.3 5.6-2.6v2.2h2.3V5.2h-2.3v2.2zm.1 5.4c0 3.3-2.5 5.8-5.7 5.8-3.4 0-5.8-2.4-5.8-5.8C16.9 9 19.9 7 22.8 7c3.1 0 5.7 2.6 5.7 5.8zm12.8-8c-1.1 0-3.7.3-5.6 2.6V5.2h-2.3v20.4h2.3v-7.4c1.9 2.4 4.7 2.6 5.6 2.6 4.6 0 8.2-3.5 8.2-8 0-3.9-3-8-8.2-8zm5.9 8.1c0 3.4-2.5 5.8-5.8 5.8-3.2 0-5.7-2.6-5.7-5.8 0-3.2 2.6-5.9 5.7-5.9 2.8 0 5.8 2 5.8 5.9zM59 4.8c-1.1 0-3.7.3-5.6 2.6V5.2h-2.3v20.4h2.3v-7.4c1.9 2.4 4.7 2.6 5.6 2.6 4.6 0 8.2-3.5 8.2-8-.1-3.9-3.1-8-8.2-8zm0 13.9c-3.2 0-5.7-2.6-5.7-5.8C53.3 9.6 55.8 7 59 7c2.9 0 5.8 2 5.8 5.9 0 3.3-2.4 5.8-5.8 5.8zM75.4 0l-8.7 20.4h2.5l2.9-6.7h9l2.9 6.7h2.7L77.9 0h-2.5zm4.8 11.5h-7.1L76.7 3l3.5 8.5zm14.7-6.7c-2.1 0-3.5.9-4.4 1.9V0h-2.3v20.4h2.3V12c0-1.7.4-3.1 1.3-3.9C93 7.1 94.5 7 94.9 7c.4 0 1.9.1 3.1 1.2.9.8 1.3 2.2 1.3 3.9v8.3h2.3v-8.3c0-2.3-.7-4.2-1.9-5.4-1.3-1.3-2.8-1.9-4.8-1.9zM104 0v20.4h2.3V0H104"/><path d="M15.6 0h-3.2l-10 9.5V0H0v20.4h2.4v-9.9l10 9.9h3.2L5.1 10 15.6 0"/></svg>