<?xml version="1.0" encoding="utf-8"?>
<!-- Generator: Adobe Illustrator 19.2.1, SVG Export Plug-In . SVG Version: 6.00 Build 0)  -->
<!DOCTYPE svg PUBLIC "-//W3C//DTD SVG 1.1//EN" "http://www.w3.org/Graphics/SVG/1.1/DTD/svg11.dtd">
<svg version="1.1" id="Lager_1" xmlns="http://www.w3.org/2000/svg" xmlns:xlink="http://www.w3.org/1999/xlink" x="0px" y="0px"
	 viewBox="0 0 15.7 14.8" enable-background="new 0 0 15.7 14.8" xml:space="preserve">
<ellipse fill="none" stroke="#333333" stroke-width="2.5" stroke-miterlimit="10" cx="6.2" cy="6" rx="5" ry="4.7"/>
<g>
	<defs>
		<path id="SVGID_1_" d="M11.6,9.5l3.3,3.3c0.3,0.3,0.4,0.9,0,1.2c-0.3,0.3-0.8,0.4-1.2,0l-3.3-3.3c-0.3-0.3-0.4-0.9,0-1.2
			C10.8,9.2,11.3,9.2,11.6,9.5z"/>
	</defs>
	<clipPath id="SVGID_2_">
		<use xlink:href="#SVGID_1_"  overflow="visible"/>
	</clipPath>
	<rect x="5.2" y="4.2" clip-path="url(#SVGID_2_)" fill="#333333" width="15" height="15"/>
</g>
<path fill="none" stroke="#333333" stroke-miterlimit="10" d="M11.6,9.5l3.3,3.3c0.3,0.3,0.4,0.9,0,1.2c-0.3,0.3-0.8,0.4-1.2,0
	l-3.3-3.3c-0.3-0.3-0.4-0.9,0-1.2C10.8,9.2,11.3,9.2,11.6,9.5z"/>
</svg>
