<?xml version="1.0" encoding="UTF-8" standalone="no"?>
<!DOCTYPE svg PUBLIC "-//W3C//DTD SVG 1.1//EN" "http://www.w3.org/Graphics/SVG/1.1/DTD/svg11.dtd">
<svg version="1.1" xmlns="http://www.w3.org/2000/svg" xmlns:xlink="http://www.w3.org/1999/xlink" preserveAspectRatio="xMidYMid meet" viewBox="0 0 1600 1000" width="1600" height="1000"><defs><path d="M1600 0C1600 0 1600 0 1600 0C1600 600 1600 933.33 1600 1000C1600 1000 1600 1000 1600 1000C640 1000 106.67 1000 0 1000C0 1000 0 1000 0 1000C0 400 0 66.67 0 0C0 0 0 0 0 0C960 0 1493.33 0 1600 0Z" id="avnup09MZ"></path><path d="M800 0C800 0 800 0 800 0C800 600 800 933.33 800 1000C800 1000 800 1000 800 1000C680 1000 613.33 1000 600 1000C600 1000 600 1000 600 1000C600 400 600 66.67 600 0C600 0 600 0 600 0C720 0 786.67 0 800 0Z" id="b2eEfVqFqj"></path><path d="M1600 400C1600 400 1600 400 1600 400C1600 520 1600 586.67 1600 600C1600 600 1600 600 1600 600C640 600 106.67 600 0 600C0 600 0 600 0 600C0 480 0 413.33 0 400C0 400 0 400 0 400C960 400 1493.33 400 1600 400Z" id="dz5It0vH3"></path></defs><g><g><g><use xlink:href="#avnup09MZ" opacity="1" fill="#006aa7" fill-opacity="1"></use><g><use xlink:href="#avnup09MZ" opacity="1" fill-opacity="0" stroke="#000000" stroke-width="1" stroke-opacity="0"></use></g></g><g><use xlink:href="#b2eEfVqFqj" opacity="1" fill="#fecc00" fill-opacity="1"></use><g><use xlink:href="#b2eEfVqFqj" opacity="1" fill-opacity="0" stroke="#000000" stroke-width="1" stroke-opacity="0"></use></g></g><g><use xlink:href="#dz5It0vH3" opacity="1" fill="#fecc00" fill-opacity="1"></use><g><use xlink:href="#dz5It0vH3" opacity="1" fill-opacity="0" stroke="#000000" stroke-width="1" stroke-opacity="0"></use></g></g></g></g></svg>