<svg xmlns="http://www.w3.org/2000/svg" viewBox="0 0 24.27 19.11"><defs><style>.cls-1{fill:#fff;}</style></defs><title>topvit</title><g id="Lager_2" data-name="Lager 2"><g id="Lager_1-2" data-name="Lager 1"><path class="cls-1" d="M3.13,8.31V.9H0V.09H7.3V.9H4.18V8.31Z"/><path class="cls-1" d="M9.6,7.89A3.46,3.46,0,0,1,8.18,6.43a4.75,4.75,0,0,1-.5-2.23A4.8,4.8,0,0,1,8.17,2,3.43,3.43,0,0,1,9.59.51,4.45,4.45,0,0,1,11.77,0,4.45,4.45,0,0,1,14,.51,3.43,3.43,0,0,1,15.36,2a4.77,4.77,0,0,1,.49,2.23,4.74,4.74,0,0,1-.5,2.24,3.5,3.5,0,0,1-1.42,1.46,4.38,4.38,0,0,1-2.17.51A4.42,4.42,0,0,1,9.6,7.89ZM14,6.71a3.65,3.65,0,0,0,.79-2.52A3.62,3.62,0,0,0,14,1.69,2.84,2.84,0,0,0,11.77.81a2.85,2.85,0,0,0-2.23.88,3.61,3.61,0,0,0-.79,2.5,3.65,3.65,0,0,0,.79,2.52,2.84,2.84,0,0,0,2.23.89A2.83,2.83,0,0,0,14,6.71Z"/><path class="cls-1" d="M17.75.09h3.58A3.41,3.41,0,0,1,23.49.7a2,2,0,0,1,.78,1.69,2,2,0,0,1-.78,1.69,3.4,3.4,0,0,1-2.16.62H18.78V8.31h-1Zm3.49,3.82a2.42,2.42,0,0,0,1.5-.39,1.35,1.35,0,0,0,.5-1.13,1.33,1.33,0,0,0-.5-1.13,2.45,2.45,0,0,0-1.5-.39H18.78v3Z"/><polygon class="cls-1" points="22.29 19.11 23.07 18.27 11.58 10.89 0.2 18.27 0.97 19.11 11.58 12.51 22.29 19.11"/></g></g></svg>