<svg xmlns="http://www.w3.org/2000/svg" xmlns:xlink="http://www.w3.org/1999/xlink" id="Layer_1" viewBox="0 0 619 112"><style>.st0{clip-path:url(#SVGID_2_);fill:#F6B623;} .st1{clip-path:url(#SVGID_2_);fill:#93702A;} .st2{clip-path:url(#SVGID_4_);fill:url(#SVGID_5_);} .st3{clip-path:url(#SVGID_7_);} .st4{fill:#808284;} .st5{fill:#5B5C5C;} .st6{clip-path:url(#SVGID_11_);fill:url(#SVGID_12_);} .st7{clip-path:url(#SVGID_14_);fill:url(#SVGID_15_);} .st8{fill:#086CB6;} .st9{clip-path:url(#SVGID_17_);fill:url(#SVGID_18_);} .st10{fill:#221F1F;} .st11{font-family:'Whitney-Bold';} .st12{font-size:47.3306px;}</style><defs><path id="SVGID_1_" d="M0 .6h618.4V112H0z"/></defs><clipPath id="SVGID_2_"><use xlink:href="#SVGID_1_" overflow="visible"/></clipPath><path class="st0" d="M607.4 24.3c6.1 0 11.1 5 11.1 11.1v42c0 6.1-5 11.1-11.1 11.1H127.9c-6.1 0-11.1-5-11.1-11.1v-42c0-6.1 5-11.1 11.1-11.1h479.5"/><path class="st1" d="M139.8 78.5l-2.3-16.2-16.1-2.8 14.6-7.2-2.3-16.2 11.4 11.7 14.6-7.2-7.6 14.5 11.4 11.7-16.1-2.8-7.6 14.5"/><path class="st0" d="M0 56.3C0 87 25 112 55.7 112s55.7-25 55.7-55.7c0-30.7-25-55.7-55.7-55.7S0 25.6 0 56.3"/><defs><path id="SVGID_3_" d="M83.1 91.8c2.2 0 4.1-1.8 4.1-4.1V59.6c4.5-4.6 7.1-10.3 7.1-16.3C94.3 27.6 77.1 9 55.5 9 33.9 9 16.1 27.6 16.1 43.3c0 6.7 3.2 12.8 8.5 17.7v26.8c0 2.2 1.8 4.1 4.1 4.1h54.4m-27.4 12.5c-26.5 0-48.1-21.6-48.1-48.1S29.2 8.2 55.7 8.2s48.1 21.6 48.1 48.1-21.6 48.1-48.1 48.1"/></defs><clipPath id="SVGID_4_"><use xlink:href="#SVGID_3_" overflow="visible"/></clipPath><radialGradient id="SVGID_5_" cx="0" cy="112" r="1" gradientTransform="matrix(0 -48.1 -48.1 0 5443 56.3)" gradientUnits="userSpaceOnUse"><stop offset="0" stop-color="#086DB6"/><stop offset=".756" stop-color="#086DB6"/><stop offset=".797" stop-color="#0E68AA"/><stop offset=".871" stop-color="#116195"/><stop offset=".955" stop-color="#0E567A"/><stop offset="1" stop-color="#0E567A"/></radialGradient><path class="st2" d="M7.6 8.2h96.2v96.2H7.6z"/><defs><linearGradient id="grad" x1="0%" y1="0%" x2="0%" y2="100%"><stop offset="0%" stop-color="#fff"/><stop offset="100%" stop-color="#2781C1"/></linearGradient><path id="SVGID_6_" d="M24.6 61c-5.3-4.9-8.5-11-8.5-17.7C16.1 27.6 33.9 9 55.5 9c21.6 0 38.8 18.6 38.8 34.3 0 6.1-2.6 11.7-7.1 16.3V48.9c0-2.3-1.8-4.1-4.1-4.1H28.7c-2.2 0-4.1 1.8-4.1 4.1V61"/></defs><clipPath id="SVGID_7_"><use xlink:href="#SVGID_6_" overflow="visible"/></clipPath><g class="st3"><defs><path id="SVGID_8_" d="M15.3 8.2H95v53.4H15.3z"/></defs><clipPath id="SVGID_9_"><use xlink:href="#SVGID_8_" overflow="visible"/></clipPath><g clip-path="url(#SVGID_9_)"><path transform="matrix(.5 0 0 .5 15.3 8.2)" fill="url(#grad)" d="M0 0h166v111H0z"/></g></g><path class="st4" d="M83.1 91.7c2.2 0 4-1.8 4-4V48.9c0-2.2-1.8-4-4-4H28.7c-2.2 0-4 1.8-4 4v38.9c0 2.2 1.8 4 4 4h54.4"/><path class="st5" d="M83.1 91.7v.1c2.2 0 4.1-1.8 4.1-4.1V48.9c0-2.3-1.8-4.1-4.1-4.1H28.7c-2.2 0-4.1 1.8-4.1 4.1v38.9c0 2.2 1.8 4.1 4.1 4.1h54.4v-.2H28.7c-1.1 0-2-.4-2.7-1.1-.7-.7-1.1-1.6-1.1-2.7v-39c0-2.1 1.7-3.8 3.8-3.8h54.4c2.1 0 3.8 1.7 3.8 3.8v38.9c0 1.1-.4 2-1.1 2.7-.7.7-1.7 1.1-2.7 1.1v.1"/><defs><path id="SVGID_10_" d="M85.4 58.3h-59v-8.9c0-1.3 1-2.3 2.3-2.3h54.4c1.3 0 2.3 1 2.3 2.3v8.9"/></defs><clipPath id="SVGID_11_"><use xlink:href="#SVGID_10_" overflow="visible"/></clipPath><linearGradient id="SVGID_12_" gradientUnits="userSpaceOnUse" y1="112" x2="1" y2="112" gradientTransform="matrix(0 -11.2 -11.2 0 1315.2 58.3)"><stop offset="0" stop-color="#909293"/><stop offset=".308" stop-color="#BFBFBF"/><stop offset=".565" stop-color="#E6E6E6"/><stop offset=".697" stop-color="#F7F8F8"/><stop offset="1" stop-color="#FFF"/></linearGradient><path class="st6" d="M26.4 47h59v11.2h-59z"/><defs><path id="SVGID_13_" d="M26.4 87.8c0 1.3 1 2.3 2.3 2.3h54.4c1.3 0 2.3-1 2.3-2.3V66.3c-.9-.2-1.7-.3-2.6-.3-12.6-.5-22.8 6.2-34.3 9.5-1.6.5-3.3.9-5 1.2-5.6 1.1-11.4.7-17.1-.4v11.5"/></defs><clipPath id="SVGID_14_"><use xlink:href="#SVGID_13_" overflow="visible"/></clipPath><linearGradient id="SVGID_15_" gradientUnits="userSpaceOnUse" y1="112" x2="1" y2="112" gradientTransform="matrix(0 24.1 24.1 0 -2647.3 66)"><stop offset="0" stop-color="#808384"/><stop offset=".074" stop-color="#8B8C8E"/><stop offset=".414" stop-color="#C1C0C1"/><stop offset=".662" stop-color="#EAE9E8"/><stop offset=".791" stop-color="#FFF"/><stop offset="1" stop-color="#FFF"/></linearGradient><path class="st7" d="M26.4 65.5h59v24.6h-59z"/><path class="st8" d="M59.2 67.5v9.6c0 1.8-1.5 3.3-3.3 3.3-1.8 0-3.3-1.5-3.3-3.3v-9.6c-1.1-.9-1.9-2.4-1.9-3.9 0-2.9 2.3-5.2 5.2-5.2 2.8 0 5.1 2.3 5.1 5.2 0 1.6-.7 3-1.8 3.9"/><path class="st5" d="M59.2 67.5H59v9.6c0 1.8-1.4 3.2-3.1 3.2-1.7 0-3.2-1.4-3.2-3.2v-9.7c-1.1-.9-1.8-2.3-1.8-3.8 0-2.8 2.2-5 5-5 1.4 0 2.6.6 3.5 1.5s1.5 2.2 1.5 3.6-.7 2.8-1.7 3.8H59v.1h.2v-.1c1.2-.9 2-2.3 2-3.9 0-2.9-2.4-5.3-5.3-5.3s-5.3 2.4-5.3 5.3c0 1.6.7 3.1 1.9 4l.1-.1h-.1v9.6c0 1.9 1.5 3.4 3.4 3.4s3.4-1.5 3.4-3.4v-9.6h-.1"/><defs><path id="SVGID_16_" d="M32.4 49.4c0 1.9 2.2 3.4 4.9 3.4s4.9-1.5 4.9-3.4V32.3c0-5.4 6.2-10 13.6-10 7.4 0 13.6 4.6 13.6 10v17.2-.1c0 1.9 2.2 3.4 5 3.4 2.7 0 4.9-1.5 4.9-3.4v.1-17.2c0-10.9-10.5-19.8-23.5-19.8s-23.5 8.9-23.5 19.8v17.1h.1"/></defs><clipPath id="SVGID_17_"><use xlink:href="#SVGID_16_" overflow="visible"/></clipPath><linearGradient id="SVGID_18_" gradientUnits="userSpaceOnUse" y1="112" x2="1" y2="112" gradientTransform="matrix(47 0 0 -47 32.4 5298.5)"><stop offset="0" stop-color="#5A5C5C"/><stop offset=".01" stop-color="#676667"/><stop offset=".038" stop-color="#868385"/><stop offset=".068" stop-color="#A4A1A2"/><stop offset=".098" stop-color="#BEBBBC"/><stop offset=".13" stop-color="#D2CFD0"/><stop offset=".165" stop-color="#E0DDDE"/><stop offset=".208" stop-color="#E6E3E4"/><stop offset=".803" stop-color="#E6E3E4"/><stop offset=".829" stop-color="#D9D6D7"/><stop offset=".87" stop-color="#BEBBBC"/><stop offset=".92" stop-color="#989596"/><stop offset=".977" stop-color="#6C6B6C"/><stop offset="1" stop-color="#5A5C5C"/></linearGradient><path class="st9" d="M32.4 12.5h47v40.4h-47z"/><path class="st4" d="M32.4 49.4h-.2c0 1 .6 2 1.6 2.6.9.6 2.2 1 3.6 1s2.7-.4 3.6-1c.9-.6 1.6-1.6 1.6-2.6H42h.5V32.3c0-2.6 1.5-5 3.9-6.8 2.4-1.8 5.8-2.9 9.4-2.9 3.6 0 7 1.1 9.4 2.9 2.4 1.8 3.9 4.2 3.9 6.8v17.2h.5v-.1h-.5c0 1 .6 2 1.6 2.6.9.7 2.2 1 3.6 1s2.7-.4 3.6-1c.9-.6 1.6-1.6 1.6-2.6H79v.1h.5V32.3c0-5.6-2.7-10.6-7-14.2-4.3-3.6-10.2-5.9-16.8-5.9-6.5 0-12.5 2.2-16.8 5.9-4.3 3.6-7 8.7-7 14.2v17.2h.5-.5.5-.2.5V32.3c0-5.4 2.6-10.3 6.8-13.8 4.2-3.6 10-5.8 16.5-5.8 6.4 0 12.2 2.2 16.5 5.8 4.2 3.6 6.8 8.4 6.8 13.8v17.2h.5v-.1h-.5c0 .8-.5 1.6-1.3 2.2-.8.6-2 1-3.3 1-1.3 0-2.5-.4-3.4-1-.8-.6-1.3-1.4-1.3-2.2h-.5v.1h.5V32.3c0-2.8-1.6-5.4-4.1-7.2-2.5-1.8-6-3-9.7-3-3.7 0-7.2 1.2-9.7 3-2.9 1.9-4.5 4.4-4.5 7.2v17.2h.5-.5c0 .8-.5 1.6-1.3 2.2-.8.6-2 1-3.3 1-1.3 0-2.5-.4-3.4-1-.8-.6-1.3-1.4-1.3-2.2h-.5.2"/><text transform="matrix(1 0 0 1.1 344.8 76.1)" class="st10 st11 st12"/><path class="st10" d="M189.6 46v30h-8.9V46h-9.9v-8h28.3l1.2 8h-10.7zm42.9 28.9l-9.1 1.6-7.8-13.5h-2.4v13.1h-8.8v-38h12.5c4.4 0 7.7 1 10.1 3.1 2.4 2 3.6 5 3.6 9 0 2.6-.6 4.9-1.7 6.6-1.1 1.8-2.8 3.2-4.9 4.2l8.5 13.9zm-12.1-28.3c-1-.9-2.5-1.4-4.4-1.4h-2.9v11.1h2.7c1.9 0 3.4-.5 4.4-1.4 1.1-1 1.6-2.4 1.6-4.2.1-1.8-.4-3.2-1.4-4.1zm32.5 15.5v14H244V62.2L231.7 39l9.4-1.4 7.8 15.8 7.6-15.4h9.3l-12.9 24.1zm37 13.6c-2.2.7-4.5 1-7 1-2.8 0-5.3-.5-7.5-1.4-2.2-1-4-2.3-5.5-4-1.5-1.7-2.6-3.8-3.4-6.2-.8-2.4-1.2-5.1-1.2-8 0-2.9.4-5.6 1.2-8 .8-2.4 2-4.5 3.6-6.3 1.5-1.7 3.4-3.1 5.6-4 2.2-1 4.7-1.4 7.4-1.4 2.2 0 4.2.3 6 .8 1.8.5 3.4 1.2 4.9 2l-1.2 8.2c-1.3-.9-2.8-1.7-4.4-2.3-1.6-.6-3.3-.9-5.2-.9-1.6 0-2.9.3-4 .9-1.1.6-2.1 1.4-2.9 2.5-.8 1-1.3 2.3-1.7 3.8-.4 1.5-.6 3.1-.6 4.8 0 1.8.2 3.4.6 4.9.4 1.5 1 2.8 1.7 3.9.8 1.1 1.7 1.9 2.9 2.5 1.2.6 2.5.9 4.1.9 1 0 1.9-.1 2.6-.3.7-.2 1.5-.5 2.2-.9v-6.8H282l-1-7h15v18.5c-1.9 1.2-3.9 2.1-6.1 2.8zm35.4 0c-2.2.7-4.5 1-7 1-2.8 0-5.3-.5-7.5-1.4-2.2-1-4-2.3-5.5-4-1.5-1.7-2.6-3.8-3.4-6.2-.8-2.4-1.2-5.1-1.2-8 0-2.9.4-5.6 1.2-8 .8-2.4 2-4.5 3.6-6.3 1.5-1.7 3.4-3.1 5.6-4 2.2-1 4.7-1.4 7.4-1.4 2.2 0 4.2.3 6 .8 1.8.5 3.4 1.2 4.9 2l-1.2 8.2c-1.3-.9-2.8-1.7-4.4-2.3-1.6-.6-3.3-.9-5.2-.9-1.6 0-2.9.3-4 .9-1.1.6-2.1 1.4-2.9 2.5-.8 1-1.3 2.3-1.7 3.8-.4 1.5-.6 3.1-.6 4.8 0 1.8.2 3.4.6 4.9.4 1.5 1 2.8 1.7 3.9.8 1.1 1.7 1.9 2.9 2.5 1.2.6 2.5.9 4.1.9 1 0 1.9-.1 2.6-.3.7-.2 1.5-.5 2.2-.9v-6.8h-6.2l-1-7h15v18.5c-1.8 1.2-3.8 2.1-6 2.8zm32.7.4v-38h22.3v7.5h-13.6v6.9H377l1.1 7.8h-11.5v8.2h14V76H358zM384.6 64v-7.9h14.2V64h-14.2zm40.7 12.1V60.5h-12.4V76H404V38h8.9v14.2h12.4V38.1h8.9v38h-8.9zm38.9.4l-2.7-8.3h-12.3l-2.5 7.9H438l13-38.2h9.7l12.4 37-8.9 1.6zm-8.8-28.9l-4 13.2h8.1l-4.1-13.2zm44 28.5l-14.1-22.8v22.8h-8.2v-38h8.6l13.2 21.3V38.1h8.2v38h-7.7zm44.3-11.4c-.8 2.3-2 4.3-3.6 6-1.6 1.7-3.6 3-5.9 3.9-2.3.9-5 1.4-8 1.4h-12.5V38H526c3.1 0 5.8.5 8.2 1.4 2.4.9 4.3 2.2 5.9 3.9 1.6 1.7 2.8 3.6 3.6 6 .8 2.3 1.2 4.9 1.2 7.7s-.4 5.4-1.2 7.7zm-8.5-12.8c-.5-1.5-1.2-2.7-2.1-3.6-.9-1-2-1.7-3.2-2.1-1.3-.5-2.7-.7-4.2-.7h-3.2v23.3h3.2c1.6 0 3-.2 4.3-.7 1.3-.5 2.3-1.2 3.2-2.1.9-.9 1.6-2.1 2-3.6.5-1.5.7-3.2.7-5.3.1-2-.2-3.7-.7-5.2zm15 24.2v-38h22.3v7.5h-13.6v6.9h10.4l1.1 7.8h-11.5v8.2h14V76h-22.7zm27.7 0v-38h8.9V68h11l1.2 8.2h-21.1z"/></svg>