<?xml version="1.0" encoding="utf-8"?>
<!-- Generator: Adobe Illustrator 19.2.1, SVG Export Plug-In . SVG Version: 6.00 Build 0)  -->
<!DOCTYPE svg PUBLIC "-//W3C//DTD SVG 1.1//EN" "http://www.w3.org/Graphics/SVG/1.1/DTD/svg11.dtd">
<svg version="1.1" id="Lager_1" xmlns="http://www.w3.org/2000/svg" xmlns:xlink="http://www.w3.org/1999/xlink" x="0px" y="0px"
	 viewBox="0 0 15.4 15.4" enable-background="new 0 0 15.4 15.4" xml:space="preserve">
<g>
	<defs>
		<path id="SVGID_1_" d="M7.7,15.1L7.7,15.1l-0.1,0H0.2c0-4.7,4.7-4.7,5.8-5.9l0.1-0.6C4.7,8,3.6,6.5,3.6,4.6c0-2.4,1.8-4.4,4-4.4
			c2.2,0,4,2,4,4.4c0,1.8-1,3.4-2.5,4l0.1,0.6c1.2,1.2,5.7,1.2,5.7,5.8H7.7z"/>
	</defs>
	<clipPath id="SVGID_2_">
		<use xlink:href="#SVGID_1_"  overflow="visible"/>
	</clipPath>
	<rect x="-4.8" y="-4.7" clip-path="url(#SVGID_2_)" fill="#333333" width="24.9" height="24.9"/>
</g>
<path fill="none" stroke="#333333" stroke-width="0.5" stroke-miterlimit="10" d="M7.7,15.1L7.7,15.1l-0.1,0H0.2
	c0-4.7,4.7-4.7,5.8-5.9l0.1-0.6C4.7,8,3.6,6.5,3.6,4.6c0-2.4,1.8-4.4,4-4.4s4,2,4,4.4c0,1.8-1,3.4-2.5,4l0.1,0.6
	c1.2,1.2,5.7,1.2,5.7,5.8H7.7z"/>
</svg>
